<svg xmlns="http://www.w3.org/2000/svg" data-name="Layer 1" width="1149" height="784.07921" style=""><rect id="backgroundrect" width="100%" height="100%" x="0" y="0" fill="none" stroke="none"/><title>done</title><g class="currentLayer" style=""><title>Layer 1</title><path d="M435,747.0792003723144 c0,20.43 -95.81,37 -214,37 s-214,-16.57 -214,-37 c0,-5.11 5.98,-9.97 16.8,-14.39 c31.5,-12.89 104.03,-22.05 189.28,-22.58 q3.9450000000000003,-0.029940000000000005 7.92,-0.030000000000000006 C339.19,710.0792003723144 435,726.6492103723144 435,747.0792003723144 z" fill="#3f3d56" id="svg_1"/><path d="M213.08,710.1091703723145 a121.49608,121.49608 0 0 1 -189.28,22.58 C55.3,719.7991703723145 127.83000000000001,710.6392003723145 213.08,710.1091703723145 z" opacity="0.1" id="svg_2"/><ellipse cx="112" cy="628.0792236328125" rx="112" ry="120" fill="#3f3d56" id="svg_3"/><path d="M249.42694999999998,83.33682037231446 c15.8799,61.17672 67.10876,100.71792 114.5379,88.40654 " fill="#3f3d56" id="svg_4"/><path d="M363.96485,171.74336037231444 c-16.05832,-61.86409 13.77629,-123.041 66.70446,-136.77977 " fill="#00b0ff" id="svg_5"/><path d="M281.95641,80.81245037231446 c15.08422,58.11138 51.76377,98.78165 82.00844,90.93091 " fill="#00b0ff" id="svg_6"/><path d="M363.96485,171.74336037231444 c-20.519,-79.04856 12.38076,-155.86347 73.55748,-171.74336 " fill="#3f3d56" id="svg_7"/><path d="M346.11557,177.20946037231445 s12.07173,-3.53356 15.06127,-7.09706 s17.23169,-10.58881 19.22867,-6.63665 s23.69491,16.08378 9.98492,19.76083 s-32.47825,6.1463 -36.71739,4.86676 S346.11557,177.20946037231445 346.11557,177.20946037231445 z" fill="#a8a8a8" id="svg_8"/><path d="M390.25716,181.71496037231447 c-13.71,3.67708 -32.47824,6.14632 -36.71739,4.86677 c-3.22834,-0.97444 -5.92072,-6.779 -7.02206,-9.49357 c-0.25452,0.07789000000000001 -0.40214,0.12129000000000002 -0.40214,0.12129000000000002 s3.31832,9.61433 7.55747,10.89388 s23.00741,-1.1897 36.71739,-4.86677 c3.95754,-1.06142 4.96115,-2.8280000000000003 4.3434800000000005,-4.89825 C394.5107,179.74392037231445 393.20281,180.92495037231444 390.25716,181.71496037231447 z" opacity="0.2" id="svg_9"/><rect x="343" y="126.07920837402344" width="806" height="467" fill="#f2f2f2" id="svg_10"/><rect x="362" y="267.8292236328125" width="442" height="231.5" fill="#00b0ff" opacity="0.3" id="svg_11"/><rect x="838" y="257.7370910644531" width="177.28070068359375" height="9.80702018737793" fill="#3f3d56" id="svg_12"/><rect x="838" y="275.84234619140625" width="258" height="9.80702018737793" fill="#3f3d56" id="svg_13"/><rect x="838" y="319.59674072265625" width="177.28070068359375" height="9.80702018737793" fill="#3f3d56" id="svg_14"/><rect x="838" y="392.0177917480469" width="177.28070068359375" height="9.80702018737793" fill="#3f3d56" id="svg_15"/><rect x="838" y="337.7019958496094" width="258" height="9.80702018737793" fill="#3f3d56" id="svg_16"/><rect x="838" y="355.8072814941406" width="258" height="9.80702018737793" fill="#3f3d56" id="svg_17"/><rect x="838" y="373.91253662109375" width="258" height="9.80702018737793" fill="#3f3d56" id="svg_18"/><rect x="838" y="435.7721862792969" width="92.78946685791016" height="25.649120330810547" fill="#00b0ff" id="svg_19"/><path d="M314.48755,407.9136003723145 s16.65689,-47.19452 28.68687,-32.3884 S324.66676,415.31660037231444 324.66676,415.31660037231444 z" fill="#a0616a" id="svg_20"/><path d="M235.82999999999998,361.64441037231444 l10.02028,3.71358 s4.78585,21.27176 2.93508,24.97329 s-2.77615,0.92538 0,8.32844 s11.10459,26.836100000000002 12.03,29.61225 s53.67219,-17.58227 53.67219,-27.76148 c0,0 11.1046,12.95535 16.65689,15.7315 c0,0 -61.07526,44.41837 -69.4037,49.97067 s-12.95536,2.77615 -20.35842,-3.70153 s-38.86607,-60.14988 -38.86607,-60.14988 z" fill="#575a89" id="svg_21"/><path d="M262.66612,690.1552803723145 s-0.92538,10.17921 -2.77615,11.10459 s-15.7315,24.05995 0,28.68686 s24.98534,2.77615 28.68687,4.62692 s68.47832,5.55229 69.4037,-4.62692 s-31.463,-12.03 -31.463,-12.03 s-29.61225,-19.433 -34.23916,-29.61225 S262.66612,690.1552803723145 262.66612,690.1552803723145 z" fill="#2f2e41" id="svg_22"/><path d="M74.81343,708.6629303723145 S52.60424999999999,746.6036003723144 58.15654000000001,751.2305403723144 s59.62519,21.48848 67.55294,22.20918 c10.17921,0.92538 17.58227,-7.40306 9.25383,-12.03 s-25.91072,-24.05995 -25.91072,-30.53762 V714.2152303723144 z" fill="#2f2e41" id="svg_23"/><path d="M53.52963,460.66036037231447 s-19.433,24.05995 11.10459,62.926 l50.89605,64.77679 s-31.463,49.97066 -32.3884,75.88138000000001 s-7.40306,20.35842 -9.25382,31.463 s-10.17921,5.5523 -3.70153,13.88074 s30.53763,15.73151 37.940690000000004,9.25383 s7.40306,-14.80612 7.40306,-18.50765 s12.95536,-24.98534 13.88074,-31.463 s35.16454,-59.22449 35.16454,-59.22449 s11.1046,-31.463 -1.8507600000000002,-49.04528 s-21.51631,-42.51892 -21.51631,-42.51892 s38.1732,46.22045 65.0093,57.325 c0,0 10.17921,1.8507600000000002 8.32844,6.47768 s0,7.40306 2.77615,12.03 s22.20918,58.29911 28.68686,72.17986 s3.70153,22.20918 11.1046,26.83609 s40.71683,0.92539 40.71683,-3.70153 s-4.6269100000000005,-16.65689 -7.40306,-23.13456 s-24.98533,-81.43368 -23.13456,-94.389 s-0.92539,-30.53763 -14.80613,-37.940690000000004 s-84.20983,-67.55294 -87.91136,-67.55294 S53.52963,460.66036037231447 53.52963,460.66036037231447 z" fill="#2f2e41" id="svg_24"/><circle cx="239.53155517578125" cy="276.5091857910156" r="38.86606979370117" fill="#a0616a" id="svg_25"/><path d="M208.06854,280.21073037231446 s-12.03,21.28381 -26.836100000000002,24.06 s38.86608,45.34376 38.86608,45.34376 s12.95535,-40.71684 24.06,-42.56761 S208.06854,280.21073037231446 208.06854,280.21073037231446 z" fill="#a0616a" id="svg_26"/><path d="M246.00923,367.19671037231444 c0,12.03 -36.08992,46.26913 -36.08992,46.26913 l-34.23916,28.68687 s-0.92539,10.17921 -4.62692,11.10459 s-8.32844,0.92538 -4.6269100000000005,6.47768 s12.95536,17.58227 4.6269100000000005,19.433 a68.02832,68.02832 0 0 1 -7.57883,0.7217700000000001 c-2.221,0.12956 -4.83047,0.24987 -7.76408,0.36091000000000006 c-6.8477500000000004,0.24061000000000002 -15.4168,0.3979100000000001 -24.69842,0.3331200000000001 q-3.95614,-0.013890000000000003 -8.05078,-0.09251000000000002 c-34.98877,-0.6940000000000002 -75.52058,-4.71949 -72.20764,-17.98018 c5.5523,-22.20919 1.8507700000000002,-29.61225 13.88074,-41.64222 s31.463,-53.672200000000004 31.463,-53.672200000000004 s38.86608,-65.70217 71.25447,-65.70217 l6.72755,-1.7675200000000002 a15.40619,15.40619 0 0 1 16.81413,6.45921 c6.49621,9.89235 16.74026,24.754 22.72746,29.54747 c9.25382,7.40306 10.69748,2.09137 10.69748,2.09137 S246.00923,355.1667303723145 246.00923,367.19671037231444 z" fill="#575a89" id="svg_27"/><path d="M163.65017,507.8548803723145 s26.836100000000002,41.64222 10.17921,49.04528 s-25.91072,-43.493 -25.91072,-43.493 z" fill="#a0616a" id="svg_28"/><path d="M214.12313,272.11924037231444 c1.49163,-0.18823000000000004 1.96338,-2.07034 2.2144500000000003,-3.5527 c1.3444800000000001,-7.93817 7.26028,-15.4657 15.20887,-16.74716 a21.53482,21.53482 0 0 1 9.06163,0.73028 a34.38206,34.38206 0 0 1 11.627,5.72293 c1.8356000000000001,1.38836 3.60212,3 5.81038,3.64852 c1.4584000000000001,0.4283100000000001 7.65073,3.18129 9.09759,3.6471 c3.18107,1.02413 5.81348,4.35366 9.08966,3.6944 c3.13435,-0.6307100000000001 4.32474,-4.41557 4.82851,-7.5728 c1.14768,-7.19282 -2.96937,-17.92518 -7.06272,-23.95 c-3.10629,-4.572 -8.36282,-7.20324 -13.61849,-8.915 a97.8475,97.8475 0 0 0 -18.88745,-3.753 c-8.645,-1.021 -17.59876,-1.56268 -25.88354,1.10952 s-15.82851,9.209 -17.37513,17.77557 c-0.3221800000000001,1.7845 -0.38254000000000005,3.6122900000000002 -0.77737,5.38213 c-0.96316,4.31751 -3.81984,7.94662 -5.48621,12.0444 a23.19276,23.19276 0 0 0 0.70753,18.80183 c2.30751,4.64043 6.32027,9.09971 5.45427,14.20932 l7.14107,-5.63086 a5.18636,5.18636 0 0 0 2.38361,-6.07029 l-1.03811,-8.94161 c-0.19008000000000003,-1.6372400000000003 -0.35562000000000005,-3.404 0.46319,-4.83437 C210.25578,263.37313037231445 211.6361,272.4330503723144 214.12313,272.11924037231444 z" fill="#2f2e41" id="svg_29"/><path d="M146.99328,444.00347037231444 l8.717,36.24723 c-8.79114,0.31465000000000004 -20.423000000000002,0.48122000000000004 -32.7492,0.24061000000000002 c-3.10939,-9.32788 -6.07983,-19.05366 -8.35623,-28.15939 c-8.32845,-33.31378 5.55229,-84.20983 12.95536,-108.26978 S153.471,313.52451037231447 153.471,313.52451037231447 s9.25383,2.77615 21.2838,11.10459 S146.99328,444.00347037231444 146.99328,444.00347037231444 z" opacity="0.1" id="svg_30"/><path d="M154.39634,442.15271037231446 l9.07806,37.73708 c-2.221,0.12956 -4.83047,0.24987 -7.76408,0.36091000000000006 c-6.8477500000000004,0.24061000000000002 -15.4168,0.3979100000000001 -24.69842,0.3331200000000001 c-3.3405,-9.91081 -6.5703,-20.36768 -9.004,-30.10267 c-8.32845,-33.31378 5.5523,-84.20982 12.95536,-108.26978 s23.59726,2.31346 23.59726,2.31346 s-6.47768,-15.7315 5.55229,-7.40306 S154.39634,442.15271037231446 154.39634,442.15271037231446 z" opacity="0.1" id="svg_31"/><path d="M157.17249,311.67375037231443 s-18.50765,6.47767 -25.91071,30.53762 s-21.28381,74.956 -12.95536,108.26978 s25.91071,74.956 25.91071,74.956 s17.58228,-12.95536 24.06,-10.17921 l-17.58227,-73.10523 s39.79146,-111.04593 27.76148,-119.37437 S157.17249,311.67375037231443 157.17249,311.67375037231443 z" fill="#575a89" id="svg_32"/><rect x="343" y="243.82920837402344" width="442" height="231.5" fill="#3f3d56" id="svg_33"/></g></svg>