<svg xmlns="http://www.w3.org/2000/svg" xmlns:xlink="http://www.w3.org/1999/xlink" data-name="Layer 1" width="861" height="778" style=""><rect id="backgroundrect" width="100%" height="100%" x="0" y="0" fill="none" stroke="none" class="" style=""/><defs><linearGradient id="74856d48-f61b-42c8-be79-e45253bc3d47" x1="0.4997496008872986" y1="0.9999111890792847" x2="0.4997496008872986" y2="-0.0000012851826340920525"><stop offset="0" stop-color="gray" stop-opacity="0.25"/><stop offset="0.54" stop-color="gray" stop-opacity="0.12"/><stop offset="1" stop-color="gray" stop-opacity="0.1"/></linearGradient></defs><title>science</title><g class="currentLayer" style=""><title>Layer 1</title><ellipse cx="440.3450698852539" cy="767.9199829101562" rx="103.75" ry="10.40999984741211" fill="#00b0ff" opacity="0.1" id="svg_8" class=""/><ellipse cx="126.01506805419922" cy="763.1300048828125" rx="78.75" ry="4.860000133514404" fill="#00b0ff" opacity="0.1" id="svg_9" class=""/><path d="M265.8350601196289,34.25000076293945 c29.21,-26 75.07,-31.33 116.8,-29.26 c131.09,6.51 249.42,69.8 351.78,141.39 c37.06,25.91 73.54,53.84 97.59,89.53 c49,72.64 34.44,173.28 -33.64,233.13 c-23.17,20.36 -51.25,36 -80.08,49.81 c-51.26,24.61 -106.57,44.36 -164.74,50 c-41.49,4 -83.49,0.7500000000000002 -124.73,-4.85 C313.5750601196289,548.3600007629394 200.4650601196289,513.8000007629395 105.66506011962889,454.70000076293945 C64.0850601196289,428.70000076293945 24.885060119628918,396.50000076293946 7.745060119628903,354.5500007629395 s-6.17,-95.11 36.29,-119.94 c17.56,-10.27 38.56,-14.91 59.11,-19.26 c30.26,-6.41 61,-12.73 88.31,-25.77 c28.2,-13.46 61.59,-39.49 56,-69.28 C241.4750601196289,88.33000076293945 236.6650601196289,60.25000076293945 265.8350601196289,34.25000076293945 z" fill="#00b0ff" opacity="0.1" id="svg_10" class=""/><path d="M507.88506011962886,391.78000076293944 V200.84000076293944 h26 v-57 H347.5850601196289 v57 h26 V391.78000076293944 a189.38,189.38 0 0 0 -122.14,177 c0,104.55 84.76,189.3 189.31,189.3 s189.3,-84.75 189.3,-189.3 A189.37,189.37 0 0 0 507.88506011962886,391.78000076293944 z" fill="#96b7fe" opacity="0.9" id="svg_11" class=""/><rect x="373.54505157470703" y="200.25" width="134.33999633789062" height="2.569999933242798" opacity="0.1" id="svg_12" class=""/><path d="M334.8350601196289,563.7000007629395 s114,-2 171,-30.53 s89.57,-3.06 86.51,14.25 s-19.33,50.88 -84.47,55 S334.8350601196289,563.7000007629395 334.8350601196289,563.7000007629395 z" fill="#00b0ff" id="svg_13" class=""/><path d="M334.8350601196289,563.7000007629395 s114,-2 171,-30.53 s89.57,-3.06 86.51,14.25 s-19.33,50.88 -84.47,55 S334.8350601196289,563.7000007629395 334.8350601196289,563.7000007629395 z" opacity="0.1" id="svg_14" class=""/><path d="M286.0150601196289,545.4000007629395 S273.8350601196289,714.3500007629394 433.5850601196289,717.4000007629395 s158.77,-170 158.77,-170 s-59,64.11 -198.46,11.19 C393.89506011962885,558.6300007629394 321.6350601196289,539.2900007629395 286.0150601196289,545.4000007629395 z" fill="#00b0ff" id="svg_15" class=""/><path d="M591.8350601196289,548.0100007629394 c-3.19,38.92 -23.88,160.75 -158.19,158.18 C301.9850601196289,703.7000007629395 287.0750601196289,588.6000007629394 285.9050601196289,548.1100007629394 c-0.7300000000000002,21.73 -0.08000000000000003,166.45 147.71,169.28 c159.79,3 158.77,-170 158.77,-170 S592.1850601196289,547.6400007629395 591.8350601196289,548.0100007629394 z" opacity="0.1" id="svg_16" class=""/><circle cx="434.55506134033203" cy="472.5" r="20.729999542236328" fill="#00b0ff" opacity="0.3" id="svg_17" class=""/><circle cx="446.39505767822266" cy="389.57000732421875" r="12.829999923706055" fill="#00b0ff" opacity="0.3" id="svg_18" class=""/><circle cx="417.76505279541016" cy="315.5199890136719" r="12.829999923706055" fill="#00b0ff" opacity="0.3" id="svg_19" class=""/><path d="M307.8350601196289,488.4900007629394 c-1.1,8.74 -0.8800000000000002,19.68 6.93,23.76 c-6.55,-3.42 20.3,-42.2 16.49,-50.12 C323.1050601196289,445.2300007629394 308.8350601196289,480.3700007629394 307.8350601196289,488.4900007629394 z" fill="#fff" opacity="0.2" id="svg_20" class=""/><circle cx="407.39505767822266" cy="85.01000213623047" r="20.729999542236328" fill="#00b0ff" opacity="0.3" id="svg_21" class=""/><circle cx="469.5850601196289" cy="49.470001220703125" r="15.40999984741211" fill="#00b0ff" opacity="0.3" id="svg_22" class=""/><circle cx="425.16507720947266" cy="8.010000228881836" r="8.010000228881836" fill="#00b0ff" opacity="0.3" id="svg_23" class=""/><path d="M210.8350601196289,263.18000076293947 H43.305060119628905 v49.69 H68.8350601196289 V700.5300007629395 a58.25,58.25 0 1 0 116.49,0 V312.87000076293947 H210.8350601196289 z" fill="#96b7fe" opacity="0.9" id="svg_24" class=""/><path d="M107.64506011962891,400.70000076293945 s41.46,-14.81 53,-4.28 c0,0 -16.79,24.68 -32.25,23.69 S107.64506011962891,400.70000076293945 107.64506011962891,400.70000076293945 z" fill="#00b0ff" id="svg_25" class=""/><path d="M107.64506011962891,400.70000076293945 s41.46,-14.81 53,-4.28 c0,0 -16.79,24.68 -32.25,23.69 S107.64506011962891,400.70000076293945 107.64506011962891,400.70000076293945 z" opacity="0.1" id="svg_26" class=""/><path d="M160.62506011962893,396.46000076293944 V677.8200007629395 a35.54,35.54 0 0 1 -35.54,35.54 h0 a35.54,35.54 0 0 1 -35.54,-35.54 V396.46000076293944 s17.11,-4.61 33.23,5.27 S160.62506011962893,396.46000076293944 160.62506011962893,396.46000076293944 z" fill="#00b0ff" id="svg_27" class=""/><rect x="68.81505584716797" y="312.55999755859375" width="116.48999786376953" height="2.2899999618530273" opacity="0.1" id="svg_28" class=""/><path d="M125.0850601196289,696.2500007629394 h0 A35.54,35.54 0 0 1 89.54506011962889,660.7000007629395 v17.77 a35.54,35.54 0 0 0 35.54,35.54 h0 a35.54,35.54 0 0 0 35.54,-35.54 V660.7000007629395 A35.54,35.54 0 0 1 125.0850601196289,696.2500007629394 z" opacity="0.1" id="svg_29" class=""/><circle cx="125.0950698852539" cy="361.5899963378906" r="7.239999771118164" fill="#00b0ff" opacity="0.3" id="svg_30" class=""/><circle cx="148.7850570678711" cy="335.9200134277344" r="4.610000133514404" fill="#00b0ff" opacity="0.3" id="svg_31" class=""/><circle cx="116.5350570678711" cy="326.7099914550781" r="4.610000133514404" fill="#00b0ff" opacity="0.3" id="svg_32" class=""/><path d="M77.8350601196289,453.94000076293946 c-1.1,8.74 -0.8800000000000002,19.68 6.93,23.76 c-6.5600000000000005,-3.42 20.3,-42.19 16.49,-50.12 C93.0850601196289,410.70000076293945 78.8350601196289,445.83000076293945 77.8350601196289,453.94000076293946 z" fill="#fff" opacity="0.2" id="svg_33" class=""/><circle cx="140.11505889892578" cy="214.5" r="17.59000015258789" fill="#00b0ff" opacity="0.3" id="svg_34" class=""/><circle cx="87.3450698852539" cy="184.33999633789062" r="13.079999923706055" fill="#00b0ff" opacity="0.3" id="svg_35" class=""/><circle cx="125.0350570678711" cy="149.16000366210938" r="6.800000190734863" fill="#00b0ff" opacity="0.3" id="svg_36" class=""/><path d="M669.025060119629,377.6100007629395 h0 z" fill="#ffb0b1" id="svg_68" class=""/><path d="M668.4250601196289,378.2300007629394 c0.1,-0.09000000000000004 0.19000000000000006,-0.19000000000000006 0.28,-0.28 C668.6150601196289,378.0400007629394 668.525060119629,378.14000076293945 668.4250601196289,378.2300007629394 z" fill="#ffb0b1" id="svg_69" class=""/><polygon points="658.2950820922852,385.29998779296875 662.8150405883789,383.8599853515625 662.1550674438477,388.2200012207031 662.0150527954102,389.1700134277344 660.6950454711914,387.7900085449219 658.2950820922852,385.29998779296875 " fill="#efc8c4" id="svg_80" class=""/><path d="M660.6950601196289,387.7900007629394 a1.13,1.13 0 0 1 0.2900000000000001,-0.24000000000000005 a0.4100000000000001,0.4100000000000001 0 0 1 0.4300000000000001,0 a1,1 0 0 1 0.16000000000000006,0.25 a0.79,0.79 0 0 0 0.5800000000000002,0.3900000000000001 l-0.14,1 z" fill="#727a9c" id="svg_81" class=""/></g></svg>